<mxfile host="app.diagrams.net" modified="2024-04-28T12:03:24.710Z" agent="Mozilla/5.0 (X11; Fedora; Linux x86_64; rv:78.0) Gecko/20100101 Firefox/78.0" version="24.3.1" etag="HwqsqoBeE6CC3Y2xiGRP" type="github">
  <diagram name="Page-1" id="6RDwj7CJA4zGYWuH_i6g">
    <mxGraphModel>
      <root>
        <mxCell id="0" />
        <mxCell id="1" parent="0" />
      </root>
    </mxGraphModel>
  </diagram>
</mxfile>
